{
 "cells": [
  {
   "cell_type": "markdown",
   "id": "a9160dc0",
   "metadata": {},
   "source": [
    "# ERA5 Data Assimilation Example"
   ]
  },
  {
   "cell_type": "code",
   "execution_count": 1,
   "id": "8965618f",
   "metadata": {
    "execution": {
     "iopub.execute_input": "2026-02-21T12:47:16.155840Z",
     "iopub.status.busy": "2026-02-21T12:47:16.155732Z",
     "iopub.status.idle": "2026-02-21T12:47:16.160303Z",
     "shell.execute_reply": "2026-02-21T12:47:16.159949Z"
    }
   },
   "outputs": [
    {
     "name": "stdout",
     "output_type": "stream",
     "text": [
      "Repo root: /scratch_root/wy524/irp-test-framework\n"
     ]
    }
   ],
   "source": [
    "from pathlib import Path\n",
    "import sys\n",
    "\n",
    "repo_root = Path.cwd().resolve()\n",
    "if not (repo_root / 'src').exists():\n",
    "    repo_root = repo_root.parent\n",
    "\n",
    "if str(repo_root) not in sys.path:\n",
    "    sys.path.append(str(repo_root))\n",
    "\n",
    "print(f'Repo root: {repo_root}')\n"
   ]
  },
  {
   "cell_type": "markdown",
   "id": "35451bc4",
   "metadata": {},
   "source": [
    "## 1) Experiment Configuration\n"
   ]
  },
  {
   "cell_type": "code",
   "execution_count": 2,
   "id": "4a47f19d",
   "metadata": {
    "execution": {
     "iopub.execute_input": "2026-02-21T12:47:16.161341Z",
     "iopub.status.busy": "2026-02-21T12:47:16.161238Z",
     "iopub.status.idle": "2026-02-21T12:47:16.165282Z",
     "shell.execute_reply": "2026-02-21T12:47:16.164939Z"
    }
   },
   "outputs": [
    {
     "data": {
      "text/plain": [
       "{'obs_ratio': 0.15,\n",
       " 'obs_noise_std': 0.0,\n",
       " 'observation_schedule': [0, 1, 2, 3],\n",
       " 'observation_variance': None,\n",
       " 'window_length': 4,\n",
       " 'num_runs': 5,\n",
       " 'start_T': 0,\n",
       " 'save_prefix': 'fullobs_direct_era5_'}"
      ]
     },
     "execution_count": 2,
     "metadata": {},
     "output_type": "execute_result"
    }
   ],
   "source": [
    "SAVE_PREFIX = 'fullobs_direct_era5_'\n",
    "WINDOW_LENGTH = 4\n",
    "OBSERVATION_SCHEDULE = list(range(WINDOW_LENGTH))\n",
    "\n",
    "DA_CONFIG = {\n",
    "    'obs_ratio': 0.15,\n",
    "    'obs_noise_std': 0.00,\n",
    "    'observation_schedule': OBSERVATION_SCHEDULE,\n",
    "    'observation_variance': None,\n",
    "    'window_length': WINDOW_LENGTH,\n",
    "    'num_runs': 5,\n",
    "    'start_T': 0,\n",
    "    'save_prefix': SAVE_PREFIX,\n",
    "}\n",
    "\n",
    "DA_CONFIG"
   ]
  },
  {
   "cell_type": "markdown",
   "id": "575d0b61",
   "metadata": {},
   "source": [
    "## 2) Unified Data Assimilation for all baselines\n"
   ]
  },
  {
   "cell_type": "code",
   "execution_count": 3,
   "id": "588d1024",
   "metadata": {
    "execution": {
     "iopub.execute_input": "2026-02-21T12:47:16.166258Z",
     "iopub.status.busy": "2026-02-21T12:47:16.166156Z",
     "iopub.status.idle": "2026-02-21T12:47:24.088348Z",
     "shell.execute_reply": "2026-02-21T12:47:24.087759Z"
    }
   },
   "outputs": [
    {
     "name": "stdout",
     "output_type": "stream",
     "text": [
      "Loaded ERA5 data with shape: (6283, 64, 32, 5)\n",
      "Dataset total samples: 6271\n",
      "\n",
      "===== Running KKR =====\n"
     ]
    },
    {
     "name": "stdout",
     "output_type": "stream",
     "text": [
      "Using device: cpu\n",
      "Forward model loaded.\n",
      "Loaded ERA5 data with shape: (6283, 64, 32, 5)\n",
      "Dataset total samples: 6271\n",
      "Ground truth slice shape: torch.Size([5, 5, 64, 32])\n",
      "Model will latent forward 1 step before DA\n",
      "Fixed observation setup: 1536 observations (15.000% ratio)\n",
      "Noise level: σ = 0.0000\n",
      "\n",
      "Starting assimilation run 1/5\n"
     ]
    },
    {
     "name": "stdout",
     "output_type": "stream",
     "text": [
      "KKR run failed: module 'torchda' has no attribute 'CaseBuilder'\n",
      "\n",
      "===== Running KAE =====\n",
      "Using device: cpu\n",
      "Forward model loaded.\n",
      "Loaded ERA5 data with shape: (6283, 64, 32, 5)\n",
      "Dataset total samples: 6271\n",
      "Ground truth slice shape: torch.Size([6, 5, 64, 32])\n",
      "Model will latent forward 1 step before DA\n",
      "Fixed observation setup: 1536 observations (15.000% ratio)\n",
      "Noise level: σ = 0.0000\n",
      "\n",
      "Starting assimilation run 1/5\n",
      "KAE run failed: module 'torchda' has no attribute 'CaseBuilder'\n",
      "\n",
      "===== Running WAE =====\n",
      "Using device: cpu\n",
      "Forward model loaded.\n"
     ]
    },
    {
     "name": "stdout",
     "output_type": "stream",
     "text": [
      "Loaded ERA5 data with shape: (6283, 64, 32, 5)\n",
      "Dataset total samples: 6271\n",
      "Ground truth slice shape: torch.Size([6, 5, 64, 32])\n",
      "Model will latent forward 1 step before DA\n",
      "Fixed observation setup: 1536 observations (15.000% ratio)\n",
      "Noise level: σ = 0.0000\n",
      "\n",
      "Starting assimilation run 1/5\n",
      "WAE run failed: module 'torchda' has no attribute 'CaseBuilder'\n",
      "\n",
      "===== Running AE =====\n",
      "Using device: cpu\n",
      "Forward model loaded.\n",
      "Loaded ERA5 data with shape: (6283, 64, 32, 5)\n",
      "Dataset total samples: 6271\n",
      "Ground truth slice shape: torch.Size([6, 5, 64, 32])\n",
      "Model will latent forward 1 step before DA\n",
      "Fixed observation setup: 1536 observations (15.000% ratio)\n",
      "Noise level: σ = 0.0000\n",
      "\n",
      "Starting assimilation run 1/5\n",
      "AE run failed: module 'torchda' has no attribute 'CaseBuilder'\n",
      "\n",
      "===== Running DMD =====\n",
      "Using device: cpu\n",
      "DMD model loaded with latent dimension 512\n"
     ]
    },
    {
     "name": "stderr",
     "output_type": "stream",
     "text": [
      "/scratch_root/wy524/miniconda3/envs/koopmanda/lib/python3.10/site-packages/torch/cuda/__init__.py:182: UserWarning: CUDA initialization: CUDA unknown error - this may be due to an incorrectly set up environment, e.g. changing env variable CUDA_VISIBLE_DEVICES after program start. Setting the available devices to be zero. (Triggered internally at /pytorch/c10/cuda/CUDAFunctions.cpp:119.)\n",
      "  return torch._C._cuda_getDeviceCount() > 0\n"
     ]
    },
    {
     "name": "stdout",
     "output_type": "stream",
     "text": [
      "Loaded ERA5 data with shape: (6283, 64, 32, 5)\n",
      "Dataset total samples: 6271\n",
      "Ground truth slice shape: torch.Size([6, 5, 64, 32])\n",
      "Model will latent forward 1 step before DA\n",
      "Fixed observation setup: 1536 observations (15.000% ratio)\n",
      "Noise level: σ = 0.0000\n",
      "\n",
      "Starting assimilation run 1/5\n"
     ]
    },
    {
     "name": "stdout",
     "output_type": "stream",
     "text": [
      "DMD run failed: module 'torchda' has no attribute 'CaseBuilder'\n",
      "\n",
      "===== Running CGKN =====\n",
      "Using device: cpu\n",
      "Loaded ERA5 data with shape: (6283, 64, 32, 5)\n",
      "Dataset total samples: 6271\n",
      "Ground truth slice shape: torch.Size([5, 5, 64, 32])\n",
      "Loaded probe coordinates from ../../../../results/CGKN/ERA5/probe_coords.npy\n",
      "[OBS] dim_u1 = 614  (points=307, channels=2)\n"
     ]
    },
    {
     "name": "stdout",
     "output_type": "stream",
     "text": [
      "\n",
      "Starting assimilation run 1/5\n"
     ]
    },
    {
     "name": "stdout",
     "output_type": "stream",
     "text": [
      "\n",
      "Starting assimilation run 2/5\n"
     ]
    },
    {
     "name": "stdout",
     "output_type": "stream",
     "text": [
      "\n",
      "Starting assimilation run 3/5\n"
     ]
    },
    {
     "name": "stdout",
     "output_type": "stream",
     "text": [
      "\n",
      "Starting assimilation run 4/5\n"
     ]
    },
    {
     "name": "stdout",
     "output_type": "stream",
     "text": [
      "\n",
      "Starting assimilation run 5/5\n"
     ]
    },
    {
     